:FULLY-SPECIFIED
:FORCE-ALL-JOINTS-BE-3DOF
:DEGREES
612
root -4.67724 15.5082 -40.6799 353.819 -74.1444 373.16
lfemur -5.45024 12.5891 -15.2972
ltibia 42.2569 0 0
lfoot -22.8716 30.0831 0
ltoes -22.9694 0 0
rfemur -44.6846 -30.4199 15.7626
rtibia 76.7543 0 0
rfoot -13.3555 -15.4929 0
rtoes -5.30334 0 0
lowerback 10.9735 4.92183 -6.17935
upperback -2.46152 5.59378 -1.14227
thorax -9.3197 2.99471 1.14664
lowerneck 2.09727 -10.9564 -11.8448
upperneck -2.41389 -14.8487 11.3543
head 0.673667 -7.46385 5.0482
lclavicle -4.41239e-14 4.00424e-15 0
lhumerus -73.2166 -23.9205 105.838
lradius 102.533 0 0
lwrist 56.2304 0 0
lhand 9.71236 57.956 0
lfingers 7.12502 0 0
lthumb 34.8699 84.7052 0
rclavicle -4.41239e-14 4.00424e-15 0
rhumerus 25.3165 18.0234 -45.477
rradius 85.5452 0 0
rwrist -21.9766 0 0
rhand -22.4295 -37.2973 0
rfingers 7.12502 0 0
rthumb 3.99454 -67.209 0
613
root -4.56221 15.5528 -40.6034 354.605 -74.5139 372.442
lfemur -6.18303 12.763 -15.6522
ltibia 42.6669 0 0
lfoot -22.6875 30.0753 0
ltoes -23.2472 0 0
rfemur -43.8264 -30.9364 16.4451
rtibia 77.3764 0 0
rfoot -13.8503 -16.5561 0
rtoes -4.8194 0 0
lowerback 10.8118 4.9402 -6.30024
upperback -2.56217 5.60124 -1.20619
thorax -9.33863 3.0044 1.15357
lowerneck 1.89742 -10.8972 -11.8497
upperneck -2.01559 -14.7727 11.4286
head 0.824256 -7.42355 5.04817
lclavicle -4.86243e-14 3.55444e-15 0
lhumerus -73.006 -23.9655 105.719
lradius 102.47 0 0
lwrist 56.1625 0 0
lhand 9.29821 57.721 0
lfingers 7.12502 0 0
lthumb 34.4729 84.5224 0
rclavicle -4.86243e-14 3.55444e-15 0
rhumerus 25.7964 17.8751 -45.7783
rradius 89.0679 0 0
rwrist -23.9123 0 0
rhand -23.1378 -36.8253 0
rfingers 7.12502 0 0
rthumb 3.31039 -66.7531 0
614
root -4.44336 15.5989 -40.5241 355.446 -74.8984 371.663
lfemur -6.95791 12.9417 -16.0157
ltibia 43.112 0 0
lfoot -22.4891 30.056 0
ltoes -23.5387 0 0
rfemur -42.9253 -31.4713 17.1566
rtibia 78.0157 0 0
rfoot -14.3654 -17.6543 0
rtoes -4.30642 0 0
lowerback 10.6478 4.95691 -6.4258
upperback -2.66531 5.60573 -1.27076
thorax -9.3587 3.01288 1.16341
lowerneck 1.6846 -10.8337 -11.8547
upperneck -1.58976 -14.6914 11.5045
head 0.984929 -7.38043 5.04712
lclavicle -5.32878e-14 3.06916e-15 0
lhumerus -72.7636 -24.0054 105.582
lradius 102.401 0 0
lwrist 56.0951 0 0
lhand 8.84597 57.4639 0
lfingers 7.12502 0 0
lthumb 34.0394 84.3225 0
rclavicle -5.32878e-14 3.06916e-15 0
rhumerus 26.2867 17.7098 -46.107
rradius 92.7359 0 0
rwrist -25.9308 0 0
rhand -23.8756 -36.3137 0
rfingers 7.12502 0 0
rthumb 2.59783 -66.2578 0
615
root -4.32066 15.6463 -40.442 356.344 -75.2982 370.822
lfemur -7.77611 13.1254 -16.3878
ltibia 43.5934 0 0
lfoot -22.276 30.0246 0
ltoes -23.8444 0 0
rfemur -41.9804 -32.0249 17.8976
rtibia 78.6722 0 0
rfoot -14.9011 -18.7881 0
rtoes -3.76378 0 0
lowerback 10.4814 4.9719 -6.55607
upperback -2.77097 5.60715 -1.33595
thorax -9.37992 3.02007 1.17626
lowerneck 1.45848 -10.7659 -11.8597
upperneck -1.13572 -14.6046 11.5819
head 1.15593 -7.33439 5.04502
lclavicle -5.81169e-14 2.54732e-15 0
lhumerus -72.4881 -24.0401 105.428
lradius 102.326 0 0
lwrist 56.0279 0 0
lhand 8.3546 57.1842 0
lfingers 7.12502 0 0
lthumb 33.5684 84.1048 0
rclavicle -5.81169e-14 2.54732e-15 0
rhumerus 26.7874 17.5269 -46.4639
rradius 96.552 0 0
rwrist -28.0341 0 0
rhand -24.6431 -35.7615 0
rfingers 7.12502 0 0
rthumb 1.85645 -65.722 0
616
root -4.19404 15.6951 -40.3571 357.301 -75.7136 369.916
lfemur -8.63886 13.314 -16.7685
ltibia 44.112 0 0
lfoot -22.0479 29.9806 0
ltoes -24.1644 0 0
rfemur -40.9905 -32.5974 18.6687
rtibia 79.3461 0 0
rfoot -15.4578 -19.9581 0
rtoes -3.19088 0 0
lowerback 10.3128 4.98507 -6.69108
upperback -2.87916 5.60538 -1.40172
thorax -9.40235 3.02593 1.1922
lowerneck 1.21875 -10.6936 -11.8647
upperneck -0.652777 -14.5121 11.6607
head 1.3375 -7.28534 5.04183
lclavicle -6.31141e-14 1.98785e-15 0
lhumerus -72.178 -24.0693 105.256
lradius 102.244 0 0
lwrist 55.9607 0 0
lhand 7.82303 56.8809 0
lfingers 7.12502 0 0
lthumb 33.0588 83.8687 0
rclavicle -6.31141e-14 1.98785e-15 0
rhumerus 27.2987 17.326 -46.8499
rradius 100.519 0 0
rwrist -30.2236 0 0
rhand -25.4408 -35.1675 0
rfingers 7.12502 0 0
rthumb 1.08587 -65.1445 0
617
root -4.17412 15.7067 -40.3332 357.926 -75.8126 369.322
lfemur -9.03901 13.3567 -16.8816
ltibia 44.2848 0 0
lfoot -21.9637 29.8763 0
ltoes -24.1668 0 0
rfemur -40.6681 -32.6849 18.8622
rtibia 79.401 0 0
rfoot -15.6227 -20.3043 0
rtoes -3.19299 0 0
lowerback 10.2798 4.98623 -6.66054
upperback -2.90601 5.61538 -1.39955
thorax -9.41193 3.02949 1.17657
lowerneck 1.18025 -10.6507 -11.8363
upperneck -0.602224 -14.4534 11.6579
head 1.35265 -7.25555 5.03588
lclavicle -6.39992e-14 1.77202e-15 0
lhumerus -71.7575 -24.13 105.135
lradius 102.157 0 0
lwrist 55.6662 0 0
lhand 7.78563 56.7269 0
lfingers 7.12502 0 0
lthumb 33.0231 83.7212 0
rclavicle -6.39992e-14 1.77202e-15 0
rhumerus 27.4571 17.3725 -46.9413
rradius 101.411 0 0
rwrist -30.7384 0 0
rhand -25.4329 -35.0185 0
rfingers 7.12502 0 0
rthumb 1.09276 -64.985 0
